<?xml version="1.0" encoding="UTF-8"?>
<svg width="19px" height="19px" viewBox="0 0 19 19" version="1.1" xmlns="http://www.w3.org/2000/svg" xmlns:xlink="http://www.w3.org/1999/xlink">
    <!-- Generator: Sketch 61.2 (89653) - https://sketch.com -->
    <title>ant-design:arrow-up-outlined</title>
    <desc>Created with Sketch.</desc>
    <g id="Test-2" stroke="none" stroke-width="1" fill="none" fill-rule="evenodd">
        <g id="Case-Study-Copy-4" transform="translate(-71.000000, -2084.000000)" fill="#4263FF" fill-rule="nonzero">
            <g id="Group-23" transform="translate(57.000000, 2069.000000)">
                <g id="ant-design:arrow-up-outlined" transform="translate(23.000000, 25.000000) rotate(-90.000000) translate(-23.000000, -25.000000) translate(13.000000, 15.000000)">
                    <path d="M19.033332,10.9708325 L10.7358325,1.40833309 C10.5840705,1.2332539 10.3637816,1.13267519 10.1320826,1.13267519 C9.90038356,1.13267519 9.68009461,1.2332539 9.52833261,1.40833309 L1.2333331,10.9708325 C1.18214323,11.0296956 1.17001193,11.1130171 1.20229191,11.1840331 C1.23457188,11.255049 1.30532512,11.3006957 1.38333309,11.3008325 L3.40833297,11.3008325 C3.52333296,11.3008325 3.63333296,11.2508325 3.71083295,11.1633325 L9.18333263,4.85583288 L9.18333263,18.933332 C9.18333263,19.043332 9.27333262,19.133332 9.38333262,19.133332 L10.8833325,19.133332 C10.9933325,19.133332 11.0833325,19.043332 11.0833325,18.933332 L11.0833325,4.85583288 L16.5558322,11.1633325 C16.6308322,11.2508325 16.7408322,11.3008325 16.8583322,11.3008325 L18.883332,11.3008325 C19.053332,11.3008325 19.145832,11.1008325 19.033332,10.9708325 Z" id="Icon-Path"></path>
                </g>
            </g>
        </g>
    </g>
</svg>