<?xml version="1.0" encoding="UTF-8"?>
<svg width="35px" height="33px" viewBox="0 0 35 33" version="1.1" xmlns="http://www.w3.org/2000/svg" xmlns:xlink="http://www.w3.org/1999/xlink">
    <!-- Generator: Sketch 61.2 (89653) - https://sketch.com -->
    <title>ant-design:arrow-right-outlined</title>
    <desc>Created with Sketch.</desc>
    <g id="Test-2" stroke="none" stroke-width="1" fill="none" fill-rule="evenodd">
        <g id="Case-Study" transform="translate(-820.000000, -3205.000000)" fill="#FFFFFF" fill-rule="nonzero">
            <g id="Group-9" transform="translate(386.000000, 3167.000000)">
                <g id="ant-design:arrow-right-outlined" transform="translate(434.000000, 38.000000)">
                    <path d="M33.7695312,15.1471354 L16.5520833,0.203776042 C16.4199219,0.08984375 16.2513021,0.0260416667 16.0735677,0.0260416667 L12.0403646,0.0260416667 C11.703125,0.0260416667 11.5481771,0.4453125 11.8033854,0.6640625 L27.7630208,14.5182292 L1.09375,14.5182292 C0.893229167,14.5182292 0.729166667,14.6822917 0.729166667,14.8828125 L0.729166667,17.6171875 C0.729166667,17.8177083 0.893229167,17.9817708 1.09375,17.9817708 L27.7584635,17.9817708 L11.7988281,31.8359375 C11.5436198,32.0592448 11.6985677,32.4739583 12.0358073,32.4739583 L16.2057292,32.4739583 C16.2923177,32.4739583 16.3789062,32.4420573 16.4427083,32.3828125 L33.7695312,17.3528646 C34.0887404,17.0752861 34.2720237,16.6730181 34.2720237,16.25 C34.2720237,15.8269819 34.0887404,15.4247139 33.7695312,15.1471354 Z" id="Icon-Path"></path>
                </g>
            </g>
        </g>
    </g>
</svg>