<?xml version="1.0" encoding="UTF-8"?>
<svg width="103px" height="103px" viewBox="0 0 103 103" version="1.1" xmlns="http://www.w3.org/2000/svg" xmlns:xlink="http://www.w3.org/1999/xlink">
    <!-- Generator: Sketch 61.2 (89653) - https://sketch.com -->
    <title>003-maze</title>
    <desc>Created with Sketch.</desc>
    <defs>
        <polygon id="path-1" points="0.0124596774 0.00830645161 103 0.00830645161 103 103 0.0124596774 103"></polygon>
    </defs>
    <g id="Test-2" stroke="none" stroke-width="1" fill="none" fill-rule="evenodd">
        <g id="Choosed-Landing-Page" transform="translate(-961.000000, -614.000000)">
            <g id="Group-2" transform="translate(148.000000, 581.000000)">
                <g id="Group-3-Copy-2" transform="translate(735.000000, 0.000000)">
                    <g id="003-maze" transform="translate(78.000000, 33.000000)">
                        <polyline id="Fill-1" fill="#58D9FB" points="88.0483871 39.8709677 88.0483871 6.64516129 83.0645161 13.2903226 78.0806452 6.64516129 78.0806452 49.8387097 89.7096774 49.8387097 89.7096774 61.4677419 53.1612903 61.4677419 53.1612903 89.7096774 38.2096774 89.7096774 38.2096774 49.8387097 33.2258065 44.8548387 28.2419355 49.8387097 28.2419355 99.6774194 63.1290323 99.6774194 63.1290323 71.4354839 99.6774194 71.4354839 99.6774194 39.8709677 88.0483871 39.8709677"></polyline>
                        <path d="M33.2258065,21.5967742 C39.6483548,21.5967742 44.8548387,26.8032581 44.8548387,33.2258065 C44.8548387,39.6483548 39.6483548,44.8548387 33.2258065,44.8548387 C26.8032581,44.8548387 21.5967742,39.6483548 21.5967742,33.2258065 C21.5967742,26.8032581 26.8032581,21.5967742 33.2258065,21.5967742" id="Fill-2" fill="#58D9FB"></path>
                        <g id="Group-6">
                            <mask id="mask-2" fill="white">
                                <use xlink:href="#path-1"></use>
                            </mask>
                            <g id="Clip-4"></g>
                            <path d="M36.5483871,33.2258065 C36.5483871,35.0582097 35.0582097,36.5483871 33.2258065,36.5483871 C31.3934032,36.5483871 29.9032258,35.0582097 29.9032258,33.2258065 C29.9032258,31.3934032 31.3934032,29.9032258 33.2258065,29.9032258 C35.0582097,29.9032258 36.5483871,31.3934032 36.5483871,33.2258065 Z M26.5806452,33.2258065 C26.5806452,36.8906129 29.561,39.8709677 33.2258065,39.8709677 C36.8906129,39.8709677 39.8709677,36.8906129 39.8709677,33.2258065 C39.8709677,29.561 36.8906129,26.5806452 33.2258065,26.5806452 C29.561,26.5806452 26.5806452,29.561 26.5806452,33.2258065 L26.5806452,33.2258065 Z" id="Fill-3" fill="#62748E" mask="url(#mask-2)"></path>
                            <path d="M88.0483871,24.9193548 L88.0483871,28.2419355 L99.6774194,28.2419355 L99.6774194,89.7096774 L89.7096774,89.7096774 L89.7096774,93.0322581 L99.6774194,93.0322581 L99.6774194,99.6774194 L66.4516129,99.6774194 L66.4516129,74.7580645 L78.0806452,74.7580645 L78.0806452,93.0322581 L81.4032258,93.0322581 L81.4032258,81.4032258 L89.7096774,81.4032258 L89.7096774,78.0806452 L81.4032258,78.0806452 L81.4032258,71.4354839 L63.1290323,71.4354839 L63.1290323,99.6774194 L28.2419355,99.6774194 L28.2419355,58.1451613 L24.9193548,58.1451613 L24.9193548,61.9279194 C12.2918871,58.2714194 3.32258065,46.5294194 3.32258065,33.2258065 C3.32258065,16.7375 16.7375,3.32258065 33.2258065,3.32258065 C49.7141129,3.32258065 63.1290323,16.7375 63.1290323,33.2258065 C63.1290323,46.5294194 54.1597258,58.2714194 41.5322581,61.9279194 L41.5322581,58.1451613 L38.2096774,58.1451613 L38.2096774,89.7096774 L53.1612903,89.7096774 L53.1612903,73.0967742 L49.8387097,73.0967742 L49.8387097,86.3870968 L41.5322581,86.3870968 L41.5322581,65.3584839 C44.8116452,64.5112258 47.8933387,63.2037903 50.6809839,61.4677419 L89.7096774,61.4677419 L89.7096774,58.1451613 L78.0806452,58.1451613 L78.0806452,34.8870968 L74.7580645,34.8870968 L74.7580645,58.1451613 L55.1382258,58.1451613 C59.6469677,54.1613871 63.0260323,48.9831452 64.8717258,43.1935484 L71.4354839,43.1935484 L71.4354839,39.8709677 L65.7439032,39.8709677 C66.1907903,37.7112903 66.4516129,35.4934677 66.4516129,33.2258065 C66.4516129,31.5279677 66.2838226,29.8716613 66.0362903,28.2419355 L78.0806452,28.2419355 L78.0806452,24.9193548 L65.3584839,24.9193548 C61.6554677,10.6123226 48.6741452,0 33.2258065,0 C14.9050968,0 0,14.9050968 0,33.2258065 C0,48.3285968 10.4079839,61.6089516 24.9193548,65.3584839 L24.9193548,103 L103,103 L103,24.9193548 L88.0483871,24.9193548" id="Fill-5" fill="#62748E" mask="url(#mask-2)"></path>
                        </g>
                        <polyline id="Fill-7" fill="#62748E" points="74.3576935 10.5475323 71.8358548 12.7105323 81.4032258 23.8727419 81.4032258 46.516129 93.0322581 46.516129 93.0322581 64.7903226 56.483871 64.7903226 56.483871 93.0322581 34.8870968 93.0322581 34.8870968 47.6840161 41.932629 55.9024194 44.4544677 53.7427419 33.2258065 40.6401452 21.9971452 53.7427419 24.5189839 55.9024194 31.5645161 47.6840161 31.5645161 96.3548387 59.8064516 96.3548387 59.8064516 68.1129032 96.3548387 68.1129032 96.3548387 43.1935484 84.7258065 43.1935484 84.7258065 23.8727419 94.2931774 12.7105323 91.7713387 10.5475323 84.7258065 18.7675968 84.7258065 13.905 94.2931774 2.74279032 91.7713387 0.579790323 83.0645161 10.7369194 74.3576935 0.579790323 71.8358548 2.74279032 81.4032258 13.905 81.4032258 18.7675968 74.3576935 10.5475323"></polyline>
                        <path d="M42.2848226,47.1391129 L44.1022742,49.9217742 C49.7739194,46.2187581 53.1612903,39.9772903 53.1612903,33.2258065 C53.1612903,22.2330484 44.2185645,13.2903226 33.2258065,13.2903226 C22.2330484,13.2903226 13.2903226,22.2330484 13.2903226,33.2258065 C13.2903226,39.9772903 16.6776935,46.2187581 22.3493387,49.9217742 L24.1667903,47.1391129 C19.4354355,44.0524355 16.6129032,38.8509355 16.6129032,33.2258065 C16.6129032,24.0654516 24.0654516,16.6129032 33.2258065,16.6129032 C42.3861613,16.6129032 49.8387097,24.0654516 49.8387097,33.2258065 C49.8387097,38.8509355 47.0161774,44.0524355 42.2848226,47.1391129" id="Fill-8" fill="#62748E"></path>
                    </g>
                </g>
            </g>
        </g>
    </g>
</svg>