<?xml version="1.0" encoding="UTF-8"?>
<svg width="22px" height="20px" viewBox="0 0 22 20" version="1.1" xmlns="http://www.w3.org/2000/svg" xmlns:xlink="http://www.w3.org/1999/xlink">
    <!-- Generator: Sketch 61.2 (89653) - https://sketch.com -->
    <title>ion-language</title>
    <desc>Created with Sketch.</desc>
    <g id="Test-2" stroke="none" stroke-width="1" fill="none" fill-rule="evenodd">
        <g id="Choosed-Landing-Page-Copy" transform="translate(-885.000000, -35.000000)" fill-rule="nonzero">
            <g id="Group" transform="translate(128.000000, 0.000000)">
                <g id="Group-7" transform="translate(756.000000, 33.000000)">
                    <g id="ion-language">
                        <g id="Icon" transform="translate(1.000000, 2.000000)" fill="#6E819C">
                            <path d="M21.4217188,18.325 L17.2029688,8.10625 C17.0436288,7.72031702 16.6672982,7.46854843 16.2497656,7.46854843 C15.832233,7.46854843 15.4559024,7.72031702 15.2965625,8.10625 L11.0778125,18.325 C10.9350775,18.6659706 10.9857526,19.0572566 11.2106391,19.3506169 C11.4355256,19.6439771 11.8002234,19.7945371 12.1665642,19.7452562 C12.5329049,19.6959753 12.8448507,19.4543918 12.9842188,19.1120313 L13.8434375,17.03125 L18.6560938,17.03125 L19.5153125,19.1120313 C19.6746016,19.4981479 20.051067,19.7500503 20.46875,19.75 C20.8128887,19.7497932 21.134246,19.5779346 21.3254872,19.2918257 C21.5167284,19.0057168 21.5526485,18.6430659 21.42125,18.325 L21.4217188,18.325 Z M14.6951563,14.96875 L16.25,11.2023438 L17.8048438,14.96875 L14.6951563,14.96875 Z" id="Icon-Shape"></path>
                            <path d="M11.555,14.074375 C11.8885948,13.6135737 11.7860312,12.9696675 11.3257812,12.6353125 C11.3164062,12.6282813 10.6226562,12.1135938 9.6153125,11.0073438 C11.4739062,8.49109375 12.5267188,5.6284375 12.9560937,4.28125 L14.46875,4.28125 C15.0382936,4.28125 15.5,3.81954365 15.5,3.25 C15.5,2.68045635 15.0382936,2.21875 14.46875,2.21875 L9.03125,2.21875 L9.03125,1.28125 C9.03125,0.711706352 8.56954365,0.25 8,0.25 C7.43045635,0.25 6.96875,0.711706352 6.96875,1.28125 L6.96875,2.21875 L1.53125,2.21875 C0.961706352,2.21875 0.5,2.68045635 0.5,3.25 C0.5,3.81954365 0.961706352,4.28125 1.53125,4.28125 L10.7773438,4.28125 C10.3310937,5.54453125 9.509375,7.5390625 8.2559375,9.360625 C6.78359375,7.406875 6.2365625,6.14265625 6.23234375,6.13234375 C6.00802715,5.61394479 5.40841605,5.37246914 4.88743491,5.59072147 C4.36645377,5.80897379 4.11799792,6.40572637 4.33015625,6.92921875 C4.35734375,6.99390625 5.0121875,8.53375 6.80796875,10.8634375 C6.85109375,10.9192188 6.89375,10.9735938 6.93640625,11.0279688 C5.09703125,13.106875 3.29234375,14.3964063 2.5371875,14.8126563 C2.21372257,14.989084 2.00895176,15.3246765 2.00001025,15.6930193 C1.99106874,16.061362 2.17931496,16.406495 2.49383838,16.5984099 C2.80836181,16.7903249 3.20137883,16.7998653 3.52484375,16.6234375 C3.62609375,16.568125 5.80296875,15.3629688 8.28875,12.6114063 C9.344375,13.7401563 10.07,14.2726563 10.1135938,14.3035938 C10.3351192,14.4644977 10.6115379,14.5307035 10.8819214,14.487618 C11.1523048,14.4445325 11.3944562,14.2956928 11.555,14.0739063 L11.555,14.074375 Z" id="Icon-Path"></path>
                        </g>
                        <rect id="ViewBox" x="0" y="0" width="24" height="24"></rect>
                    </g>
                </g>
            </g>
        </g>
    </g>
</svg>