<?xml version="1.0" encoding="UTF-8"?>
<svg width="32px" height="31px" viewBox="0 0 32 31" version="1.1" xmlns="http://www.w3.org/2000/svg" xmlns:xlink="http://www.w3.org/1999/xlink">
    <!-- Generator: Sketch 61.2 (89653) - https://sketch.com -->
    <title>twitter</title>
    <desc>Created with Sketch.</desc>
    <g id="Test-2" stroke="none" stroke-width="1" fill="none" fill-rule="evenodd">
        <g id="Case-Study-Copy-4" transform="translate(-64.000000, -2118.000000)">
            <g id="Group-23" transform="translate(57.000000, 2069.000000)">
                <g id="social-media" transform="translate(8.000000, 50.000000)">
                    <g id="twitter">
                        <ellipse id="Oval" stroke="#4263FF" stroke-width="0.620000005" fill="#FFFFFF" cx="15.0000001" cy="14.7000001" rx="15.0000001" ry="14.7000001"></ellipse>
                        <g id="jam-linkedin" transform="translate(8.400000, 8.400000)" fill="#4263FF" fill-rule="nonzero">
                            <path d="M13.1729401,7.73454006 L13.1729401,12.6046801 L10.3494601,12.6046801 L10.3494601,8.06058006 C10.3494601,6.91878005 9.94092008,6.13998005 8.91924007,6.13998005 C8.13912006,6.13998005 7.67448006,6.66534005 7.47054006,7.17288006 C7.39596006,7.35438006 7.37682006,7.60716006 7.37682006,7.86126006 L7.37682006,12.6046801 L4.55202004,12.6046801 C4.55202004,12.6046801 4.59030004,4.90908004 4.55202004,4.11114003 L7.37682006,4.11114003 L7.37682006,5.31498004 L7.35834006,5.34270004 L7.37682006,5.34270004 L7.37682006,5.31498004 C7.75170006,4.73748004 8.42160006,3.91182003 9.92178008,3.91182003 C11.7796801,3.91182003 13.1729401,5.12622004 13.1729401,7.73454006 L13.1729401,7.73454006 Z M1.59786001,0.0171600001 C0.632280005,0.0171600001 0,0.650760005 0,1.48434001 C0,2.29944002 0.613800005,2.95218002 1.56090001,2.95218002 L1.57938001,2.95218002 C2.56476002,2.95218002 3.17658002,2.29944002 3.17658002,1.48434001 C3.15942002,0.650760005 2.56542002,0.0171600001 1.59852001,0.0171600001 L1.59786001,0.0171600001 Z M0.167640001,12.6046801 L2.99112002,12.6046801 L2.99112002,4.11114003 L0.167640001,4.11114003 L0.167640001,12.6046801 Z" id="Icon-Shape"></path>
                        </g>
                    </g>
                </g>
            </g>
        </g>
    </g>
</svg>