<?xml version="1.0" encoding="UTF-8"?>
<svg width="40px" height="40px" viewBox="0 0 40 40" version="1.1" xmlns="http://www.w3.org/2000/svg" xmlns:xlink="http://www.w3.org/1999/xlink">
    <!-- Generator: Sketch 61.2 (89653) - https://sketch.com -->
    <title>002-idea</title>
    <desc>Created with Sketch.</desc>
    <defs>
        <polygon id="path-1" points="0.00479173191 0.00320701535 39.6116505 0.00320701535 39.6116505 37.201378 0.00479173191 37.201378"></polygon>
    </defs>
    <g id="Test-2" stroke="none" stroke-width="1" fill="none" fill-rule="evenodd">
        <g id="Case-Study" transform="translate(-166.000000, -596.000000)">
            <g id="summary" transform="translate(128.000000, 566.000000)">
                <g id="Group-3">
                    <g id="002-idea" transform="translate(38.000000, 30.000000)">
                        <g id="Group-4">
                            <mask id="mask-2" fill="white">
                                <use xlink:href="#path-1"></use>
                            </mask>
                            <g id="Clip-2"></g>
                            <path d="M19.8058252,10.9038522 C24.7457814,10.9038522 28.7503915,14.9241666 28.7503915,19.8834951 C28.7503915,24.8428237 24.7457814,28.8631381 19.8058252,28.8631381 C14.8658691,28.8631381 10.861259,24.8428237 10.861259,19.8834951 C10.861259,14.9241666 14.8658691,10.9038522 19.8058252,10.9038522" id="Fill-1" fill-opacity="0.396607299" fill="#6122F5" mask="url(#mask-2)"></path>
                            <path d="M31.0414782,7.69683683 L25.5559035,7.69683683 L25.5559035,8.97964297 L29.7636831,8.97964297 L21.5647103,17.2107686 C21.0593423,16.8746733 20.4555841,16.6764798 19.8058252,16.6764798 C19.1560664,16.6764798 18.5523082,16.8746733 18.0469402,17.2107686 L14.6946445,13.8453267 L14.6946445,8.3382399 L13.4168494,8.3382399 L13.4168494,12.5625205 L7.15629189,6.27741184 L9.4844347,3.94013905 L12.1141372,5.82586408 L12.4616975,5.64498841 C13.2743752,5.22166239 14.1196367,4.8688907 14.9719261,4.5975772 L15.3444034,4.47891763 L15.8746884,1.28280614 L23.737601,1.28280614 L24.267886,4.47891763 L24.6403633,4.5975772 C25.4926527,4.8688907 26.3372753,5.22166239 27.1505919,5.64498841 L27.4981522,5.82586408 L30.1278547,3.94013905 L32.4559975,6.27741184 L31.0414782,7.69683683 Z M19.8058252,21.8077044 C18.7490886,21.8077044 17.8891325,20.9443758 17.8891325,19.8834951 C17.8891325,18.8226145 18.7490886,17.9592859 19.8058252,17.9592859 C20.8625619,17.9592859 21.722518,18.8226145 21.722518,19.8834951 C21.722518,20.9443758 20.8625619,21.8077044 19.8058252,21.8077044 Z M3.19448794,5.13122455 C2.13775133,5.13122455 1.27779518,4.26789602 1.27779518,3.20701535 C1.27779518,2.14613467 2.13775133,1.28280614 3.19448794,1.28280614 C4.25122455,1.28280614 5.11118071,2.14613467 5.11118071,3.20701535 C5.11118071,4.26789602 4.25122455,5.13122455 3.19448794,5.13122455 Z M36.4171625,1.28280614 C37.4738992,1.28280614 38.3338553,2.14613467 38.3338553,3.20701535 C38.3338553,4.26789602 37.4738992,5.13122455 36.4171625,5.13122455 C35.3604259,5.13122455 34.5004698,4.26789602 34.5004698,3.20701535 C34.5004698,2.14613467 35.3604259,1.28280614 36.4171625,1.28280614 Z M35.2997307,12.2726063 L37.3557031,9.3830855 L34.2627999,6.27741184 L34.6589164,5.87974194 C35.1636455,6.21583714 35.7674037,6.41403069 36.4171625,6.41403069 C38.1786032,6.41403069 39.6116505,4.97536361 39.6116505,3.20701535 C39.6116505,1.43866708 38.1786032,0 36.4171625,0 C34.6557219,0 33.2226746,1.43866708 33.2226746,3.20701535 C33.2226746,3.85932227 33.420094,4.46544817 33.7548763,4.972798 L33.3587598,5.3704679 L30.2658566,2.26479424 L27.3876229,4.32882931 C26.7378641,4.00876918 26.0721328,3.73104165 25.4000125,3.49949515 L24.8192546,0 L14.7923959,0 L14.211638,3.49949515 C13.5388788,3.73168306 12.8731475,4.00941059 12.2240276,4.32882931 L9.34579392,2.26479424 L6.2528907,5.3704679 L5.85677419,4.972798 C6.19155653,4.46544817 6.38897588,3.85932227 6.38897588,3.20701535 C6.38897588,1.43866708 4.95592859,0 3.19448794,0 C1.43304729,0 0,1.43866708 0,3.20701535 C0,4.97536361 1.43304729,6.41403069 3.19448794,6.41403069 C3.84424679,6.41403069 4.44800501,6.21583714 4.953373,5.87974194 L5.34948951,6.27741184 L2.25658628,9.3830855 L4.31255872,12.2726063 C3.99438772,12.9242718 3.71710617,13.5926138 3.48646414,14.2673699 L0,14.8504053 L0,24.916585 L3.48582524,25.4996204 C3.71646727,26.1743764 3.99374883,26.8427184 4.31191982,27.494384 L2.24891951,30.3941672 L9.32726589,37.201378 L10.861259,37.201378 L10.861259,35.9185719 L9.83966176,35.9185719 L3.93177576,30.2363821 L5.80374569,27.6053467 L5.62357657,27.2570648 C5.20190417,26.4405587 4.85051049,25.5932653 4.58025681,24.7376336 L4.46206076,24.3636956 L1.27779518,23.8300482 L1.27779518,15.9369421 L4.46206076,15.4039361 L4.58025681,15.0299981 C4.85051049,14.1743664 5.20190417,13.327073 5.62357657,12.5105669 L5.80374569,12.162285 L3.92474789,9.52162856 L6.2528907,7.18435578 L12.5134482,13.4694645 L8.30566865,13.4694645 L8.30566865,14.7522706 L13.7912433,14.7522706 L17.143539,18.1177125 C16.8087567,18.6250623 16.6113373,19.2311882 16.6113373,19.8834951 C16.6113373,21.6518434 18.0443846,23.0905105 19.8058252,23.0905105 C21.5672659,23.0905105 23.0003132,21.6518434 23.0003132,19.8834951 C23.0003132,19.2311882 22.8028938,18.6250623 22.4681115,18.1177125 L30.6670842,9.88658691 L30.6670842,14.1108675 L31.9448794,14.1108675 L31.9448794,8.60378077 L33.3587598,7.18435578 L35.6869026,9.52162856 L33.8079048,12.162285 L33.9880739,12.5105669 C34.4097463,13.327073 34.76114,14.1743664 35.0313937,15.0299981 L35.1495897,15.4039361 L38.3338553,15.9369421 L38.3338553,23.8300482 L35.1495897,24.3630542 L35.0313937,24.7369922 C34.76114,25.5926239 34.4097463,26.4399173 33.9880739,27.2564234 L33.8079048,27.6047053 L35.6798747,30.2357407 L29.7719887,35.9185719 L28.7503915,35.9185719 L28.7503915,37.201378 L30.2843846,37.201378 L37.362731,30.3941672 L35.2997307,27.494384 C35.6179017,26.8427184 35.8951832,26.1743764 36.1258252,25.4996204 L39.6116505,24.916585 L39.6116505,14.8504053 L36.1258252,14.2673699 C35.8951832,13.5919724 35.6179017,12.9236304 35.2997307,12.2726063 L35.2997307,12.2726063 Z" id="Fill-3" fill="#62748E" mask="url(#mask-2)"></path>
                        </g>
                        <path d="M15.5339806,8.89385503 L15.9866626,10.0970874 C18.301441,9.22247701 20.9237863,9.22312011 23.2366384,10.0964443 L23.6893204,8.89321193 C21.0868802,7.90927527 18.138347,7.90927527 15.5339806,8.89385503" id="Fill-5" fill="#62748E"></path>
                        <path d="M14.5199569,33.2696377 L24.7033441,33.2696377 L24.7033441,32.0012351 L14.5199569,32.0012351 L14.5199569,33.2696377 Z M24.7033441,35.8064428 L23.4304207,35.8064428 L23.4304207,37.0748454 L24.7033441,37.0748454 L24.7033441,38.3432479 L14.5199569,38.3432479 L14.5199569,37.0748454 L22.1581338,37.0748454 L22.1581338,35.8064428 L14.5199569,35.8064428 L14.5199569,34.5380403 L24.7033441,34.5380403 L24.7033441,35.8064428 Z M31.0679612,19.9514108 C31.0679612,18.5644126 30.821014,17.2091245 30.3341208,15.9229643 L29.143301,16.3707104 C29.5754585,17.5129069 29.7950378,18.7178893 29.7950378,19.9514108 C29.7950378,23.4623491 28.0033981,26.675847 25.0024811,28.5486434 L24.7033441,28.7350985 L24.7033441,30.7328326 L14.5199569,30.7328326 L14.5199569,28.7350985 L14.2208198,28.5486434 C11.2199029,26.675847 9.42826321,23.4623491 9.42826321,19.9514108 C9.42826321,18.7172551 9.6478425,17.5122727 10.08,16.3700762 L8.88918015,15.9223301 C8.40228695,17.2084903 8.15533981,18.5637784 8.15533981,19.9514108 C8.15533981,23.7838892 10.0513592,27.3011695 13.2470334,29.4308173 L13.2470334,30.7328326 L11.97411,30.7328326 L11.97411,32.0012351 L13.2470334,32.0012351 L13.2470334,33.2696377 L11.97411,33.2696377 L11.97411,34.5380403 L13.2470334,34.5380403 L13.2470334,35.8064428 L11.97411,35.8064428 L11.97411,37.0748454 L13.2470334,37.0748454 L13.2470334,39.6116505 L25.9762675,39.6116505 L25.9762675,37.0748454 L27.2491909,37.0748454 L27.2491909,35.8064428 L25.9762675,35.8064428 L25.9762675,34.5380403 L27.2491909,34.5380403 L27.2491909,33.2696377 L25.9762675,33.2696377 L25.9762675,32.0012351 L27.2491909,32.0012351 L27.2491909,30.7328326 L25.9762675,30.7328326 L25.9762675,29.4308173 C29.1719417,27.3011695 31.0679612,23.7838892 31.0679612,19.9514108 L31.0679612,19.9514108 Z" id="Fill-6" fill="#62748E"></path>
                    </g>
                </g>
            </g>
        </g>
    </g>
</svg>