<?xml version="1.0" encoding="UTF-8"?>
<svg width="102px" height="102px" viewBox="0 0 102 102" version="1.1" xmlns="http://www.w3.org/2000/svg" xmlns:xlink="http://www.w3.org/1999/xlink">
    <!-- Generator: Sketch 61.2 (89653) - https://sketch.com -->
    <title>002-idea</title>
    <desc>Created with Sketch.</desc>
    <defs>
        <polygon id="path-1" points="0.0123387097 0.00825806452 102 0.00825806452 102 95.7935484 0.0123387097 95.7935484"></polygon>
    </defs>
    <g id="Test-2" stroke="none" stroke-width="1" fill="none" fill-rule="evenodd">
        <g id="Choosed-Landing-Page" transform="translate(-225.000000, -615.000000)">
            <g id="Group-2" transform="translate(148.000000, 581.000000)">
                <g id="Group-3">
                    <g id="002-idea" transform="translate(77.000000, 34.000000)">
                        <g id="Group-4">
                            <mask id="mask-2" fill="white">
                                <use xlink:href="#path-1"></use>
                            </mask>
                            <g id="Clip-2"></g>
                            <path d="M51,28.0774194 C63.7203871,28.0774194 74.0322581,38.429729 74.0322581,51.2 C74.0322581,63.970271 63.7203871,74.3225806 51,74.3225806 C38.2796129,74.3225806 27.9677419,63.970271 27.9677419,51.2 C27.9677419,38.429729 38.2796129,28.0774194 51,28.0774194" id="Fill-1" fill="#58D9FB" mask="url(#mask-2)"></path>
                            <path d="M79.9318065,19.8193548 L65.8064516,19.8193548 L65.8064516,23.1225806 L76.6414839,23.1225806 L55.529129,44.317729 C54.2278065,43.4522839 52.673129,42.9419355 51,42.9419355 C49.326871,42.9419355 47.7721935,43.4522839 46.470871,44.317729 L37.8387097,35.6517161 L37.8387097,21.4709677 L34.5483871,21.4709677 L34.5483871,32.3484903 L18.4274516,16.1643355 L24.4224194,10.1458581 L31.1939032,15.0016 L32.088871,14.5358452 C34.1815161,13.4457806 36.3580645,12.5373935 38.5527097,11.8387613 L39.5118387,11.5332129 L40.8773226,3.30322581 L61.1243226,3.30322581 L62.4898065,11.5332129 L63.4489355,11.8387613 C65.6435806,12.5373935 67.8184839,13.4457806 69.9127742,14.5358452 L70.8077419,15.0016 L77.5792258,10.1458581 L83.5741935,16.1643355 L79.9318065,19.8193548 Z M51,56.1548387 C48.2789032,56.1548387 46.0645161,53.9317677 46.0645161,51.2 C46.0645161,48.4682323 48.2789032,46.2451613 51,46.2451613 C53.7210968,46.2451613 55.9354839,48.4682323 55.9354839,51.2 C55.9354839,53.9317677 53.7210968,56.1548387 51,56.1548387 Z M8.22580645,13.2129032 C5.50470968,13.2129032 3.29032258,10.9898323 3.29032258,8.25806452 C3.29032258,5.52629677 5.50470968,3.30322581 8.22580645,3.30322581 C10.9469032,3.30322581 13.1612903,5.52629677 13.1612903,8.25806452 C13.1612903,10.9898323 10.9469032,13.2129032 8.22580645,13.2129032 Z M93.7741935,3.30322581 C96.4952903,3.30322581 98.7096774,5.52629677 98.7096774,8.25806452 C98.7096774,10.9898323 96.4952903,13.2129032 93.7741935,13.2129032 C91.0530968,13.2129032 88.8387097,10.9898323 88.8387097,8.25806452 C88.8387097,5.52629677 91.0530968,3.30322581 93.7741935,3.30322581 Z M90.8968065,31.6019613 L96.1909355,24.1614452 L88.2267097,16.1643355 L89.2467097,15.1403355 C90.5463871,16.0057806 92.1010645,16.516129 93.7741935,16.516129 C98.3099032,16.516129 102,12.8115613 102,8.25806452 C102,3.70456774 98.3099032,0 93.7741935,0 C89.2384839,0 85.5483871,3.70456774 85.5483871,8.25806452 C85.5483871,9.93775484 86.0567419,11.498529 86.9188065,12.8049548 L85.8988065,13.8289548 L77.9345806,5.83184516 L70.523129,11.1467355 C68.85,10.3225806 67.1357419,9.60743226 65.4050323,9.0112 L63.9095806,0 L38.0904194,0 L36.5949677,9.0112 C34.8626129,9.60908387 33.1483548,10.3242323 31.476871,11.1467355 L24.0654194,5.83184516 L16.1011935,13.8289548 L15.0811935,12.8049548 C15.9432581,11.498529 16.4516129,9.93775484 16.4516129,8.25806452 C16.4516129,3.70456774 12.7615161,0 8.22580645,0 C3.69009677,0 0,3.70456774 0,8.25806452 C0,12.8115613 3.69009677,16.516129 8.22580645,16.516129 C9.89893548,16.516129 11.4536129,16.0057806 12.7549355,15.1403355 L13.7749355,16.1643355 L5.81070968,24.1614452 L11.1048387,31.6019613 C10.2855484,33.28 9.57154839,35.0009806 8.97764516,36.7384774 L0,38.2397935 L0,64.1602065 L8.976,65.6615226 C9.56990323,67.3990194 10.2839032,69.12 11.1031935,70.7980387 L5.79096774,78.2649806 L24.0177097,95.7935484 L27.9677419,95.7935484 L27.9677419,92.4903226 L25.337129,92.4903226 L10.1243226,77.8586839 L14.9446452,71.0837677 L14.4807097,70.1869419 C13.3949032,68.0844387 12.4900645,65.9026581 11.7941613,63.6994065 L11.4898065,62.7365161 L3.29032258,61.3623742 L3.29032258,41.0376258 L11.4898065,39.6651355 L11.7941613,38.7022452 C12.4900645,36.4989935 13.3949032,34.3172129 14.4807097,32.2147097 L14.9446452,31.3178839 L10.1062258,24.5181935 L16.1011935,18.4997161 L32.222129,34.683871 L21.3870968,34.683871 L21.3870968,37.9870968 L35.5124516,37.9870968 L44.1446129,46.6531097 C43.2825484,47.9595355 42.7741935,49.5203097 42.7741935,51.2 C42.7741935,55.7534968 46.4642903,59.4580645 51,59.4580645 C55.5357097,59.4580645 59.2258065,55.7534968 59.2258065,51.2 C59.2258065,49.5203097 58.7174516,47.9595355 57.8553871,46.6531097 L78.9677419,25.4579613 L78.9677419,36.3354839 L82.2580645,36.3354839 L82.2580645,22.1547355 L85.8988065,18.4997161 L91.8937742,24.5181935 L87.0553548,31.3178839 L87.5192903,32.2147097 C88.6050968,34.3172129 89.5099355,36.4989935 90.2058387,38.7022452 L90.5101935,39.6651355 L98.7096774,41.0376258 L98.7096774,61.3623742 L90.5101935,62.7348645 L90.2058387,63.6977548 C89.5099355,65.9010065 88.6050968,68.0827871 87.5192903,70.1852903 L87.0553548,71.0821161 L91.8756774,77.8570323 L76.662871,92.4903226 L74.0322581,92.4903226 L74.0322581,95.7935484 L77.9822903,95.7935484 L96.2090323,78.2649806 L90.8968065,70.7980387 C91.7160968,69.12 92.4300968,67.3990194 93.024,65.6615226 L102,64.1602065 L102,38.2397935 L93.024,36.7384774 C92.4300968,34.999329 91.7160968,33.2783484 90.8968065,31.6019613 L90.8968065,31.6019613 Z" id="Fill-3" fill="#62748E" mask="url(#mask-2)"></path>
                        </g>
                        <path d="M40,22.9016767 L41.1656562,26 C47.1262105,23.7478783 53.8787497,23.7495343 59.8343438,25.998344 L61,22.9000207 C54.2987166,20.3663838 46.7062436,20.3663838 40,22.9016767" id="Fill-5" fill="#62748E"></path>
                        <path d="M37.3888889,85.6693171 L63.6111111,85.6693171 L63.6111111,82.4031805 L37.3888889,82.4031805 L37.3888889,85.6693171 Z M63.6111111,92.2015902 L60.3333333,92.2015902 L60.3333333,95.4677268 L63.6111111,95.4677268 L63.6111111,98.7338634 L37.3888889,98.7338634 L37.3888889,95.4677268 L57.0571944,95.4677268 L57.0571944,92.2015902 L37.3888889,92.2015902 L37.3888889,88.9354536 L63.6111111,88.9354536 L63.6111111,92.2015902 Z M80,51.3748829 C80,47.8033625 79.3641111,44.3134956 78.1103611,41.0016331 L75.044,42.1545793 C76.1568056,45.0957353 76.7222222,48.198565 76.7222222,51.3748829 C76.7222222,60.415549 72.10875,68.690306 64.3813889,73.5127567 L63.6111111,73.9928788 L63.6111111,79.1370439 L37.3888889,79.1370439 L37.3888889,73.9928788 L36.6186111,73.5127567 C28.89125,68.690306 24.2777778,60.415549 24.2777778,51.3748829 C24.2777778,48.196932 24.8431944,45.0941022 25.956,42.1529462 L22.8896389,41 C21.6358889,44.3118625 21,47.8017294 21,51.3748829 C21,61.2435146 25.88225,70.3005113 34.1111111,75.7843547 L34.1111111,79.1370439 L30.8333333,79.1370439 L30.8333333,82.4031805 L34.1111111,82.4031805 L34.1111111,85.6693171 L30.8333333,85.6693171 L30.8333333,88.9354536 L34.1111111,88.9354536 L34.1111111,92.2015902 L30.8333333,92.2015902 L30.8333333,95.4677268 L34.1111111,95.4677268 L34.1111111,102 L66.8888889,102 L66.8888889,95.4677268 L70.1666667,95.4677268 L70.1666667,92.2015902 L66.8888889,92.2015902 L66.8888889,88.9354536 L70.1666667,88.9354536 L70.1666667,85.6693171 L66.8888889,85.6693171 L66.8888889,82.4031805 L70.1666667,82.4031805 L70.1666667,79.1370439 L66.8888889,79.1370439 L66.8888889,75.7843547 C75.11775,70.3005113 80,61.2435146 80,51.3748829 L80,51.3748829 Z" id="Fill-6" fill="#62748E"></path>
                    </g>
                </g>
            </g>
        </g>
    </g>
</svg>