<?xml version="1.0" encoding="UTF-8"?>
<svg width="52px" height="51px" viewBox="0 0 52 51" version="1.1" xmlns="http://www.w3.org/2000/svg" xmlns:xlink="http://www.w3.org/1999/xlink">
    <!-- Generator: Sketch 61.2 (89653) - https://sketch.com -->
    <title>linkedin</title>
    <desc>Created with Sketch.</desc>
    <g id="Test-2" stroke="none" stroke-width="1" fill="none" fill-rule="evenodd">
        <g id="Choosed-Landing-Page-Copy" transform="translate(-1061.000000, -20.000000)">
            <g id="Group" transform="translate(128.000000, 0.000000)">
                <g id="social-media" transform="translate(874.000000, 21.000000)">
                    <g id="linkedin" transform="translate(60.000000, 0.000000)">
                        <ellipse id="Oval" stroke="#CBD5E2" fill="#FFFFFF" cx="25" cy="24.5" rx="25" ry="24.5"></ellipse>
                        <g id="jam-twitter" transform="translate(14.000000, 16.000000)" fill="#6E819C" fill-rule="nonzero">
                            <path d="M22.3529412,2.13135294 C21.5151358,2.49724575 20.6278012,2.73715753 19.7197647,2.84329412 C20.6728641,2.28361308 21.3895819,1.396059 21.736,0.346470588 C20.8329406,0.872131448 19.8480042,1.24237989 18.8222941,1.44176471 C17.9494055,0.52744066 16.7390226,0.0121691254 15.4749412,0.016734227 C12.9423529,0.016734227 10.8892353,2.03970588 10.8892353,4.53205882 C10.8892353,4.88523529 10.9294706,5.23058824 11.0077059,5.56029412 C7.33449357,5.38559531 3.90432128,3.67334872 1.55688235,0.842705882 C1.14986438,1.52938957 0.935934444,2.31328447 0.937705882,3.11152941 C0.939288081,4.62818324 1.70592844,6.0416764 2.97629412,6.87017647 C2.24924666,6.84670521 1.53790605,6.65259882 0.899705882,6.30352941 L0.899705882,6.35941176 C0.899705882,8.54776471 2.48117647,10.3728824 4.57676471,10.7886471 C4.18291802,10.8931462 3.77718015,10.9461176 3.36970588,10.9462353 C3.07352941,10.9462353 2.78629412,10.9182941 2.50576471,10.8624118 C3.11991677,12.7132799 4.83867851,13.9722998 6.78858824,13.9996471 C5.1568993,15.2564949 3.1537986,15.9354654 1.09417647,15.9298235 C0.723117647,15.9298235 0.358764706,15.9074706 0,15.8672353 C2.10257772,17.1980255 4.5405451,17.9027838 7.02888235,17.8991319 C15.4637647,17.8991319 20.0751765,11.0177647 20.0751765,5.05064706 L20.0595294,4.46611765 C20.9590738,3.83316059 21.7361588,3.04206376 22.3529412,2.13135294 Z" id="Icon-Path"></path>
                        </g>
                    </g>
                </g>
            </g>
        </g>
    </g>
</svg>