<?xml version="1.0" encoding="UTF-8"?>
<svg width="32px" height="31px" viewBox="0 0 32 31" version="1.1" xmlns="http://www.w3.org/2000/svg" xmlns:xlink="http://www.w3.org/1999/xlink">
    <!-- Generator: Sketch 61.2 (89653) - https://sketch.com -->
    <title>linkedin</title>
    <desc>Created with Sketch.</desc>
    <g id="Test-2" stroke="none" stroke-width="1" fill="none" fill-rule="evenodd">
        <g id="Case-Study-Copy-4" transform="translate(-64.000000, -2153.000000)">
            <g id="Group-23" transform="translate(57.000000, 2069.000000)">
                <g id="social-media" transform="translate(8.000000, 50.000000)">
                    <g id="linkedin" transform="translate(0.000000, 34.838710)">
                        <ellipse id="Oval" stroke="#4263FF" stroke-width="0.620000005" fill="#FFFFFF" cx="15.0000001" cy="14.7000001" rx="15.0000001" ry="14.7000001"></ellipse>
                        <g id="jam-twitter" transform="translate(8.400000, 9.600000)" fill="#4263FF" fill-rule="nonzero">
                            <path d="M13.4117648,1.27881177 C12.9090816,1.49834746 12.3766808,1.64229453 11.8318589,1.70597648 C12.4037186,1.37016786 12.8337492,0.837635409 13.0416001,0.207882355 C12.4997645,0.523278873 11.9088026,0.745427938 11.2933766,0.86505883 C10.7696434,0.316464398 10.0434136,0.00730147531 9.28496478,0.0100405363 C7.76541182,0.0100405363 6.53354123,1.22382354 6.53354123,2.71923532 C6.53354123,2.9311412 6.5576824,3.13835297 6.60462358,3.3361765 C4.40069617,3.23135721 2.34259279,2.20400925 0.934129419,0.505623533 C0.689918635,0.917633751 0.561560671,1.38797069 0.562623534,1.86691766 C0.563572853,2.77690997 1.02355707,3.62500587 1.78577648,4.12210591 C1.34954801,4.10802316 0.922743638,3.99155932 0.539823534,3.78211768 L0.539823534,3.81564709 C0.539823534,5.12865886 1.48870589,6.22372946 2.74605884,6.47318829 C2.50975083,6.53588779 2.26630811,6.56767059 2.02182354,6.56774123 C1.84411766,6.56774123 1.67177648,6.55097652 1.50345884,6.51744711 C1.87195008,7.62796803 2.90320713,8.38337996 4.07315297,8.3997883 C3.09413961,9.15389699 1.89227918,9.56127931 0.656505887,9.55789419 C0.433870592,9.55789419 0.215258825,9.54448243 0,9.52034125 C1.26154664,10.3188154 2.72432708,10.7416704 4.21732944,10.7394792 C9.27825889,10.7394792 12.045106,6.61065887 12.045106,3.03038826 L12.0357177,2.67967061 C12.5754444,2.29989637 13.0416954,1.82523827 13.4117648,1.27881177 Z" id="Icon-Path"></path>
                        </g>
                    </g>
                </g>
            </g>
        </g>
    </g>
</svg>