<?xml version="1.0" standalone="no"?>
<!DOCTYPE svg PUBLIC "-//W3C//DTD SVG 20010904//EN"
 "http://www.w3.org/TR/2001/REC-SVG-20010904/DTD/svg10.dtd">
<svg version="1.0" xmlns="http://www.w3.org/2000/svg"
 width="340.000000pt" height="340.000000pt" viewBox="0 0 340.000000 340.000000"
 preserveAspectRatio="xMidYMid meet">
<metadata>
Created by potrace 1.11, written by Peter Selinger 2001-2013
</metadata>
<g transform="translate(0.000000,340.000000) scale(0.100000,-0.100000)"
fill="#000000" stroke="none">
<path d="M1500 3278 c-165 -33 -341 -123 -474 -239 -45 -41 -154 -174 -185
-229 -53 -91 -108 -237 -126 -330 -14 -75 -14 -275 -1 -345 14 -71 11 -84 -21
-85 -19 0 -151 -60 -208 -94 -54 -33 -178 -131 -210 -168 -145 -165 -216 -304
-260 -513 -13 -58 -12 -271 0 -342 29 -163 89 -300 189 -433 141 -187 320
-306 561 -372 64 -17 108 -22 220 -22 143 -1 173 3 280 30 119 31 325 143 403
221 13 13 25 23 29 23 3 0 33 -22 68 -50 138 -110 283 -178 460 -216 73 -16
287 -12 373 7 386 85 677 365 772 744 28 110 35 295 15 402 -66 362 -313 654
-660 779 -27 9 -51 18 -51 18 -1 1 4 33 12 71 19 99 12 297 -15 400 -53 202
-129 334 -276 479 -232 229 -575 330 -895 264z"/>
</g>
</svg>
