<?xml version="1.0" encoding="UTF-8"?>
<svg width="11px" height="19px" viewBox="0 0 11 19" version="1.1" xmlns="http://www.w3.org/2000/svg" xmlns:xlink="http://www.w3.org/1999/xlink">
    <!-- Generator: Sketch 61.2 (89653) - https://sketch.com -->
    <title>uil-angle-right-b</title>
    <desc>Created with Sketch.</desc>
    <g id="Test-2" stroke="none" stroke-width="1" fill="none" fill-rule="evenodd">
        <g id="Choosed-Landing-Page-Copy" transform="translate(-532.000000, -1255.000000)" fill-rule="nonzero">
            <g id="case-study-1" transform="translate(133.000000, 946.000000)">
                <g id="uil-angle-right-b" transform="translate(388.000000, 302.000000)">
                    <g id="Icon" transform="translate(11.000000, 7.000000)" fill="#FFFFFF">
                        <path d="M10.3675,8.52375 L2.585,0.755 C2.32682093,0.494695105 1.97537661,0.348277304 1.60875,0.348277304 C1.24212339,0.348277304 0.890679075,0.494695105 0.6325,0.755 C0.0993800573,1.2913015 0.0993800573,2.1574485 0.6325,2.69375 L7.43875,9.56875 L0.6325,16.375 C0.0993800573,16.9113015 0.0993800573,17.7774485 0.6325,18.31375 C0.889723225,18.5761765 1.24128689,18.7247245 1.60875,18.72625 C1.97621311,18.7247245 2.32777677,18.5761765 2.585,18.31375 L10.3675,10.545 C10.6496654,10.2846911 10.8101577,9.91827347 10.8101577,9.534375 C10.8101577,9.15047653 10.6496654,8.78405893 10.3675,8.52375 L10.3675,8.52375 Z" id="Icon-Path"></path>
                    </g>
                    <rect id="ViewBox" x="0" y="0" width="33" height="33"></rect>
                </g>
            </g>
        </g>
    </g>
</svg>