<?xml version="1.0" encoding="UTF-8"?>
<svg width="58px" height="58px" viewBox="0 0 58 58" version="1.1" xmlns="http://www.w3.org/2000/svg" xmlns:xlink="http://www.w3.org/1999/xlink">
    <!-- Generator: Sketch 61.2 (89653) - https://sketch.com -->
    <title>ant-design:code-filled copy</title>
    <desc>Created with Sketch.</desc>
    <g id="Test-2" stroke="none" stroke-width="1" fill="none" fill-rule="evenodd">
        <g id="Choosed-Landing-Page-Copy" transform="translate(-618.000000, -1830.000000)" fill="#8132AD" fill-rule="nonzero">
            <g id="Skills-card" transform="translate(133.000000, 1465.000000)">
                <g id="engineering" transform="translate(438.000000, 333.000000)">
                    <g id="ant-design:code-filled-copy" transform="translate(46.000000, 31.000000)">
                        <path d="M56.5384615,1.15384615 L3.46153846,1.15384615 C2.18509615,1.15384615 1.15384615,2.18509615 1.15384615,3.46153846 L1.15384615,56.5384615 C1.15384615,57.8149038 2.18509615,58.8461538 3.46153846,58.8461538 L56.5384615,58.8461538 C57.8149038,58.8461538 58.8461538,57.8149038 58.8461538,56.5384615 L58.8461538,3.46153846 C58.8461538,2.18509615 57.8149038,1.15384615 56.5384615,1.15384615 Z M30.0793269,30.4399038 L16.2331731,42.0504808 C15.8581731,42.3677885 15.2884017,42.1009615 15.2884017,41.6105769 L15.2884017,37.0889423 C15.2884017,36.9230769 15.3677885,36.7572115 15.4975962,36.6490385 L23.4158654,30 L15.4975962,23.3509615 C15.3632443,23.2448474 15.2859404,23.0822426 15.2884017,22.9110577 L15.2884017,18.3894231 C15.2884017,17.8990385 15.8581731,17.6322115 16.2331731,17.9495192 L30.0793269,29.5528846 C30.3605769,29.7836538 30.3605769,30.2091346 30.0793269,30.4399038 L30.0793269,30.4399038 Z M44.7115385,41.6105769 C44.7115385,41.9278846 44.4663462,42.1875 44.1706731,42.1875 L30.8293269,42.1875 C30.5336538,42.1875 30.2884615,41.9278846 30.2884615,41.6105769 L30.2884615,38.1490385 C30.2884615,37.8317308 30.5336538,37.5721154 30.8293269,37.5721154 L44.1706731,37.5721154 C44.4663462,37.5721154 44.7115385,37.8317308 44.7115385,38.1490385 L44.7115385,41.6105769 Z" id="Icon-Shape"></path>
                    </g>
                </g>
            </g>
        </g>
    </g>
</svg>