<?xml version="1.0" encoding="UTF-8"?>
<svg width="39px" height="60px" viewBox="0 0 39 60" version="1.1" xmlns="http://www.w3.org/2000/svg" xmlns:xlink="http://www.w3.org/1999/xlink">
    <!-- Generator: Sketch 61.2 (89653) - https://sketch.com -->
    <title>mdi-badge-account copy</title>
    <desc>Created with Sketch.</desc>
    <g id="Test-2" stroke="none" stroke-width="1" fill="none" fill-rule="evenodd">
        <g id="Choosed-Landing-Page-Copy" transform="translate(-904.000000, -1828.000000)" fill="#2CBCF0" fill-rule="nonzero">
            <g id="Skills-card" transform="translate(133.000000, 1465.000000)">
                <g id="user-research" transform="translate(681.000000, 332.000000)">
                    <g id="mdi-badge-account-copy" transform="translate(90.000000, 31.000000)">
                        <path d="M32.7272727,5.45454545 L24.5454545,5.45454545 L24.5454545,13.6363636 L13.6363636,13.6363636 L13.6363636,5.45454545 L5.45454545,5.45454545 C2.44208318,5.45454545 0,7.89662864 0,10.9090909 L0,54.5454545 C0,57.5579168 2.44208318,60 5.45454545,60 L32.7272727,60 C35.739735,60 38.1818182,57.5579168 38.1818182,54.5454545 L38.1818182,10.9090909 C38.1818182,7.89662864 35.739735,5.45454545 32.7272727,5.45454545 M19.0909091,19.0909091 C22.1033714,19.0909091 24.5454545,21.5329923 24.5454545,24.5454545 C24.5454545,27.5579168 22.1033714,30 19.0909091,30 C16.0784468,30 13.6363636,27.5579168 13.6363636,24.5454545 C13.6363636,21.5329923 16.0784468,19.0909091 19.0909091,19.0909091 M30,40.9090909 L8.18181818,40.9090909 L8.18181818,38.1818182 C8.18181818,34.5545455 15.4636364,32.7272727 19.0909091,32.7272727 C22.7181818,32.7272727 30,34.5545455 30,38.1818182 L30,40.9090909 M21.8181818,10.9090909 L16.3636364,10.9090909 L16.3636364,0 L21.8181818,0 L21.8181818,10.9090909 M30,49.0909091 L8.18181818,49.0909091 L8.18181818,46.3636364 L30,46.3636364 L30,49.0909091 M19.0909091,54.5454545 L8.18181818,54.5454545 L8.18181818,51.8181818 L19.0909091,51.8181818 L19.0909091,54.5454545 Z" id="Icon-Shape"></path>
                    </g>
                </g>
            </g>
        </g>
    </g>
</svg>