<?xml version="1.0" encoding="UTF-8"?>
<svg width="103px" height="103px" viewBox="0 0 103 103" version="1.1" xmlns="http://www.w3.org/2000/svg" xmlns:xlink="http://www.w3.org/1999/xlink">
    <!-- Generator: Sketch 61.2 (89653) - https://sketch.com -->
    <title>001-radar</title>
    <desc>Created with Sketch.</desc>
    <defs>
        <polygon id="path-1" points="0.0124596774 0.00830645161 103 0.00830645161 103 103 0.0124596774 103"></polygon>
    </defs>
    <g id="Test-2" stroke="none" stroke-width="1" fill="none" fill-rule="evenodd">
        <g id="Choosed-Landing-Page" transform="translate(-593.000000, -614.000000)">
            <g id="Group-2" transform="translate(148.000000, 581.000000)">
                <g id="Group-3-Copy" transform="translate(367.000000, 0.000000)">
                    <g id="001-radar" transform="translate(78.000000, 33.000000)">
                        <g id="Group-4">
                            <mask id="mask-2" fill="white">
                                <use xlink:href="#path-1"></use>
                            </mask>
                            <g id="Clip-2"></g>
                            <path d="M76.4193548,16.6129032 C82.8419032,16.6129032 88.0483871,21.8193871 88.0483871,28.2419355 C88.0483871,34.6644839 82.8419032,39.8709677 76.4193548,39.8709677 C69.9968065,39.8709677 64.7903226,34.6644839 64.7903226,28.2419355 C64.7903226,21.8193871 69.9968065,16.6129032 76.4193548,16.6129032" id="Fill-1" fill="#58D9FB" mask="url(#mask-2)"></path>
                            <path d="M66.4516129,69.7741935 C48.1309032,69.7741935 33.2258065,54.8690968 33.2258065,36.5483871 C33.2258065,18.2276774 48.1309032,3.32258065 66.4516129,3.32258065 C84.7723226,3.32258065 99.6774194,18.2276774 99.6774194,36.5483871 C99.6774194,54.8690968 84.7723226,69.7741935 66.4516129,69.7741935 Z M42.3629032,71.5783548 L31.4216452,60.6370968 L35.7376774,56.3210645 C38.5651935,60.6985645 42.3014355,64.4348065 46.6789355,67.2623226 L42.3629032,71.5783548 Z M16.5298387,97.4114194 C15.0679032,98.8733548 13.1241935,99.6774194 11.0592097,99.6774194 C6.79301613,99.6774194 3.32258065,96.2069839 3.32258065,91.9407903 C3.32258065,89.8724839 4.12664516,87.9304355 5.58858065,86.4701613 L29.0725806,62.9861613 L40.0138387,73.9274194 L16.5298387,97.4114194 Z M66.4516129,0 C46.2985,0 29.9032258,16.3952742 29.9032258,36.5483871 C29.9032258,42.6037903 31.3917419,48.3153065 34.0099355,53.3506774 L29.0725806,58.2880323 L26.0938871,55.3093387 L23.7448226,57.6584032 L26.7235161,60.6370968 L3.23951613,84.1210968 C1.1496129,86.2093387 0,88.9853548 0,91.9407903 C0,98.0393871 4.9606129,103 11.0592097,103 C14.0113226,103 16.7873387,101.850387 18.8789032,99.7604839 L42.3629032,76.2764839 L45.3415968,79.2551774 L47.6906613,76.9061129 L44.7119677,73.9274194 L49.6493226,68.9900645 C54.6846935,71.6082581 60.3962097,73.0967742 66.4516129,73.0967742 C86.6047258,73.0967742 103,56.7015 103,36.5483871 C103,16.3952742 86.6047258,0 66.4516129,0 L66.4516129,0 Z" id="Fill-3" fill="#62748E" mask="url(#mask-2)"></path>
                        </g>
                        <path d="M68.1129032,59.7217258 L68.1129032,56.483871 L64.7903226,56.483871 L64.7903226,59.7217258 C53.2925323,58.904371 44.095629,49.7074677 43.2782742,38.2096774 L46.516129,38.2096774 L46.516129,34.8870968 L43.2782742,34.8870968 C44.095629,23.3893065 53.2925323,14.1924032 64.7903226,13.3750484 L64.7903226,16.6129032 L68.1129032,16.6129032 L68.1129032,13.3750484 C79.6106935,14.1924032 88.8075968,23.3893065 89.6249516,34.8870968 L86.3870968,34.8870968 L86.3870968,38.2096774 L89.6249516,38.2096774 C88.8075968,49.7074677 79.6106935,58.904371 68.1129032,59.7217258 Z M96.3548387,34.8870968 L92.9475323,34.8870968 C92.1185484,21.5585645 81.4414355,10.8814516 68.1129032,10.0524677 L68.1129032,6.64516129 L64.7903226,6.64516129 L64.7903226,10.0524677 C51.4617903,10.8814516 40.7846774,21.5585645 39.9556935,34.8870968 L36.5483871,34.8870968 L36.5483871,38.2096774 L39.9556935,38.2096774 C40.7863387,51.5382097 51.4617903,62.2153226 64.7903226,63.0443065 L64.7903226,66.4516129 L68.1129032,66.4516129 L68.1129032,63.0443065 C81.4414355,62.2136613 92.1185484,51.5382097 92.9475323,38.2096774 L96.3548387,38.2096774 L96.3548387,34.8870968 L96.3548387,34.8870968 Z" id="Fill-5" fill="#62748E"></path>
                        <path d="M76.5057419,42.3977903 L79.3747903,44.072371 C80.0692097,42.8828871 80.5925161,41.6086774 80.9330806,40.284629 L77.7135,39.4589677 C77.4510161,40.4839839 77.044,41.4724516 76.5057419,42.3977903" id="Fill-6" fill="#62748E"></path>
                        <path d="M76.4193548,31.5645161 C74.5869516,31.5645161 73.0967742,30.0743387 73.0967742,28.2419355 C73.0967742,26.4095323 74.5869516,24.9193548 76.4193548,24.9193548 C78.2517581,24.9193548 79.7419355,26.4095323 79.7419355,28.2419355 C79.7419355,30.0743387 78.2517581,31.5645161 76.4193548,31.5645161 Z M76.4193548,21.5967742 C74.9507742,21.5967742 73.6034677,22.0918387 72.5036935,22.9008871 C70.6048387,22.0602742 68.5448387,21.5967742 66.4516129,21.5967742 C58.206629,21.5967742 51.5,28.3050645 51.5,36.5483871 C51.5,44.7917097 58.206629,51.5 66.4516129,51.5 C70.4536613,51.5 74.2131613,49.9400484 77.0390161,47.1058871 L74.686629,44.7601452 C72.4887419,46.9646774 69.5632097,48.1774194 66.4516129,48.1774194 C60.0406935,48.1774194 54.8225806,42.9609677 54.8225806,36.5483871 C54.8225806,30.1358065 60.0406935,24.9193548 66.4516129,24.9193548 C67.7789839,24.9193548 69.0880806,25.1652258 70.3274032,25.6021452 C69.9752097,26.4128548 69.7741935,27.3033065 69.7741935,28.2419355 C69.7741935,31.9067419 72.7545484,34.8870968 76.4193548,34.8870968 C80.0841613,34.8870968 83.0645161,31.9067419 83.0645161,28.2419355 C83.0645161,24.577129 80.0841613,21.5967742 76.4193548,21.5967742 L76.4193548,21.5967742 Z" id="Fill-7" fill="#62748E"></path>
                    </g>
                </g>
            </g>
        </g>
    </g>
</svg>