<?xml version="1.0" encoding="UTF-8"?>
<svg width="40px" height="40px" viewBox="0 0 40 40" version="1.1" xmlns="http://www.w3.org/2000/svg" xmlns:xlink="http://www.w3.org/1999/xlink">
    <!-- Generator: Sketch 61.2 (89653) - https://sketch.com -->
    <title>001-radar</title>
    <desc>Created with Sketch.</desc>
    <defs>
        <polygon id="path-1" points="0.00479218362 0.00319478908 39.6153846 0.00319478908 39.6153846 39.6153846 0.00479218362 39.6153846"></polygon>
    </defs>
    <g id="Test-2" stroke="none" stroke-width="1" fill="none" fill-rule="evenodd">
        <g id="Case-Study" transform="translate(-513.000000, -596.000000)">
            <g id="summary" transform="translate(128.000000, 566.000000)">
                <g id="Group-3-Copy" transform="translate(347.000000, 0.000000)">
                    <g id="001-radar" transform="translate(38.000000, 30.000000)">
                        <g id="Group-4">
                            <mask id="mask-2" fill="white">
                                <use xlink:href="#path-1"></use>
                            </mask>
                            <g id="Clip-2"></g>
                            <path d="M29.3920596,6.38957816 C31.8622705,6.38957816 33.8647643,8.39207196 33.8647643,10.8622829 C33.8647643,13.3324938 31.8622705,15.3349876 29.3920596,15.3349876 C26.9218486,15.3349876 24.9193548,13.3324938 24.9193548,10.8622829 C24.9193548,8.39207196 26.9218486,6.38957816 29.3920596,6.38957816" id="Fill-1" fill-opacity="0.396607299" fill="#6122F5" mask="url(#mask-2)"></path>
                            <path d="M25.5583127,26.8362283 C18.5118859,26.8362283 12.7791563,21.1034988 12.7791563,14.057072 C12.7791563,7.01064516 18.5118859,1.27791563 25.5583127,1.27791563 C32.6047395,1.27791563 38.337469,7.01064516 38.337469,14.057072 C38.337469,21.1034988 32.6047395,26.8362283 25.5583127,26.8362283 Z M16.2934243,27.5301365 L12.0852481,23.3219603 L13.7452605,21.6619479 C14.8327667,23.3456017 16.2697829,24.7826179 17.9534367,25.8701241 L16.2934243,27.5301365 Z M6.35763027,37.4659305 C5.79534739,38.0282134 5.04776675,38.337469 4.25354218,38.337469 C2.61269851,38.337469 1.27791563,37.0026861 1.27791563,35.3618424 C1.27791563,34.56634 1.58717122,33.8193983 2.14945409,33.2577543 L11.1817618,24.2254467 L15.389938,28.4336228 L6.35763027,37.4659305 Z M25.5583127,0 C17.8071154,0 11.5012407,6.30587469 11.5012407,14.057072 C11.5012407,16.3860732 12.0737469,18.5828102 13.0807444,20.5194913 L11.1817618,22.4184739 L10.0361104,21.2728226 L9.13262407,22.1763089 L10.2782754,23.3219603 L1.24596774,32.354268 C0.442158809,33.157438 0,34.2251365 0,35.3618424 C0,37.7074566 1.90792804,39.6153846 4.25354218,39.6153846 C5.38897022,39.6153846 6.45666873,39.1732258 7.26111663,38.3694169 L16.2934243,29.3371092 L17.4390757,30.4827605 L18.342562,29.5792742 L17.1969107,28.4336228 L19.0958933,26.5346402 C21.0325744,27.5416377 23.2293114,28.1141439 25.5583127,28.1141439 C33.3095099,28.1141439 39.6153846,21.8082692 39.6153846,14.057072 C39.6153846,6.30587469 33.3095099,0 25.5583127,0 L25.5583127,0 Z" id="Fill-3" fill="#62748E" mask="url(#mask-2)"></path>
                        </g>
                        <path d="M26.1972705,22.9698945 L26.1972705,21.7245658 L24.9193548,21.7245658 L24.9193548,22.9698945 C20.4971278,22.6555273 16.9598573,19.1182568 16.6454901,14.6960298 L17.8908189,14.6960298 L17.8908189,13.4181141 L16.6454901,13.4181141 C16.9598573,8.9958871 20.4971278,5.45861663 24.9193548,5.14424938 L24.9193548,6.38957816 L26.1972705,6.38957816 L26.1972705,5.14424938 C30.6194975,5.45861663 34.156768,8.9958871 34.4711352,13.4181141 L33.2258065,13.4181141 L33.2258065,14.6960298 L34.4711352,14.6960298 C34.156768,19.1182568 30.6194975,22.6555273 26.1972705,22.9698945 Z M37.0595533,13.4181141 L35.7490509,13.4181141 C35.4302109,8.29175558 31.323629,4.1851737 26.1972705,3.86633375 L26.1972705,2.55583127 L24.9193548,2.55583127 L24.9193548,3.86633375 C19.7929963,4.1851737 15.6864144,8.29175558 15.3675744,13.4181141 L14.057072,13.4181141 L14.057072,14.6960298 L15.3675744,14.6960298 C15.6870533,19.8223883 19.7929963,23.9289702 24.9193548,24.2478102 L24.9193548,25.5583127 L26.1972705,25.5583127 L26.1972705,24.2478102 C31.323629,23.9283313 35.4302109,19.8223883 35.7490509,14.6960298 L37.0595533,14.6960298 L37.0595533,13.4181141 L37.0595533,13.4181141 Z" id="Fill-5" fill="#62748E"></path>
                        <path d="M29.4252854,16.3068424 L30.5287655,16.9509119 C30.7958499,16.4934181 30.9971216,16.0033375 31.1281079,15.4940881 L29.8898077,15.1765261 C29.7888524,15.570763 29.6323077,15.9509429 29.4252854,16.3068424" id="Fill-6" fill="#62748E"></path>
                        <path d="M29.3920596,12.1401985 C28.6872891,12.1401985 28.1141439,11.5670533 28.1141439,10.8622829 C28.1141439,10.1575124 28.6872891,9.58436725 29.3920596,9.58436725 C30.09683,9.58436725 30.6699752,10.1575124 30.6699752,10.8622829 C30.6699752,11.5670533 30.09683,12.1401985 29.3920596,12.1401985 Z M29.3920596,8.30645161 C28.8272208,8.30645161 28.3090261,8.49686104 27.886036,8.8080335 C27.1557072,8.48472084 26.3633995,8.30645161 25.5583127,8.30645161 C22.387165,8.30645161 19.8076923,10.8865633 19.8076923,14.057072 C19.8076923,17.2275806 22.387165,19.8076923 25.5583127,19.8076923 C27.097562,19.8076923 28.5435236,19.2077109 29.6303908,18.1176489 L28.7256266,17.2154404 C27.8802854,18.0633375 26.7550806,18.5297767 25.5583127,18.5297767 C23.0925744,18.5297767 21.0856079,16.5234491 21.0856079,14.057072 C21.0856079,11.5906948 23.0925744,9.58436725 25.5583127,9.58436725 C26.06884,9.58436725 26.5723387,9.678933 27.0490012,9.84697891 C26.9135422,10.1587903 26.8362283,10.5012717 26.8362283,10.8622829 C26.8362283,12.2718238 27.9825186,13.4181141 29.3920596,13.4181141 C30.8016005,13.4181141 31.9478908,12.2718238 31.9478908,10.8622829 C31.9478908,9.45274194 30.8016005,8.30645161 29.3920596,8.30645161 L29.3920596,8.30645161 Z" id="Fill-7" fill="#62748E"></path>
                    </g>
                </g>
            </g>
        </g>
    </g>
</svg>