<?xml version="1.0" encoding="UTF-8"?>
<svg width="52px" height="51px" viewBox="0 0 52 51" version="1.1" xmlns="http://www.w3.org/2000/svg" xmlns:xlink="http://www.w3.org/1999/xlink">
    <!-- Generator: Sketch 61.2 (89653) - https://sketch.com -->
    <title>twitter</title>
    <desc>Created with Sketch.</desc>
    <g id="Test-2" stroke="none" stroke-width="1" fill="none" fill-rule="evenodd">
        <g id="Choosed-Landing-Page-Copy" transform="translate(-1001.000000, -20.000000)">
            <g id="Group" transform="translate(128.000000, 0.000000)">
                <g id="social-media" transform="translate(874.000000, 21.000000)">
                    <g id="twitter">
                        <ellipse id="Oval" stroke="#CBD5E2" fill="#FFFFFF" cx="25" cy="24.5" rx="25" ry="24.5"></ellipse>
                        <g id="jam-linkedin" transform="translate(14.000000, 14.000000)" fill="#6E819C" fill-rule="nonzero">
                            <path d="M21.9549,12.8909 L21.9549,21.0078 L17.2491,21.0078 L17.2491,13.4343 C17.2491,11.5313 16.5682,10.2333 14.8654,10.2333 C13.5652,10.2333 12.7908,11.1089 12.4509,11.9548 C12.3266,12.2573 12.2947,12.6786 12.2947,13.1021 L12.2947,21.0078 L7.5867,21.0078 C7.5867,21.0078 7.6505,8.1818 7.5867,6.8519 L12.2947,6.8519 L12.2947,8.8583 L12.2639,8.9045 L12.2947,8.9045 L12.2947,8.8583 C12.9195,7.8958 14.036,6.5197 16.5363,6.5197 C19.6328,6.5197 21.9549,8.5437 21.9549,12.8909 L21.9549,12.8909 Z M2.6631,0.0286 C1.0538,0.0286 0,1.0846 0,2.4739 C0,3.8324 1.023,4.9203 2.6015,4.9203 L2.6323,4.9203 C4.2746,4.9203 5.2943,3.8324 5.2943,2.4739 C5.2657,1.0846 4.2757,0.0286 2.6642,0.0286 L2.6631,0.0286 Z M0.2794,21.0078 L4.9852,21.0078 L4.9852,6.8519 L0.2794,6.8519 L0.2794,21.0078 Z" id="Icon-Shape"></path>
                        </g>
                    </g>
                </g>
            </g>
        </g>
    </g>
</svg>