<?xml version="1.0" encoding="UTF-8"?>
<svg width="60px" height="60px" viewBox="0 0 60 60" version="1.1" xmlns="http://www.w3.org/2000/svg" xmlns:xlink="http://www.w3.org/1999/xlink">
    <!-- Generator: Sketch 61.2 (89653) - https://sketch.com -->
    <title>ant-design:pie-chart-filled copy</title>
    <desc>Created with Sketch.</desc>
    <g id="Test-2" stroke="none" stroke-width="1" fill="none" fill-rule="evenodd">
        <g id="Choosed-Landing-Page-Copy" transform="translate(-334.000000, -1828.000000)" fill="#32C89F" fill-rule="nonzero">
            <g id="Skills-card" transform="translate(133.000000, 1465.000000)">
                <g id="data-analysis" transform="translate(165.000000, 332.000000)">
                    <g id="ant-design:pie-chart-filled-copy" transform="translate(36.000000, 31.000000)">
                        <path d="M53.5111607,30.4352679 L29.5647321,30.4352679 L29.5647321,6.48883929 C29.5647321,6.19419643 29.3236607,5.95311107 29.0290179,5.95311107 L27.2879464,5.95311107 C20.1913034,5.9458794 13.3839621,8.76520307 8.37053571,13.7879464 C5.92656238,16.2243589 3.97971273,19.1127924 2.63839286,22.2924107 C1.24553571,25.59375 0.535714286,29.0959821 0.535714286,32.7120536 C0.535714286,36.328125 1.24553571,39.8236607 2.63839286,43.125 C3.984375,46.3058036 5.91294643,49.171875 8.37053571,51.6294643 C10.828125,54.0870536 13.6875,56.015625 16.875,57.3616071 C20.1705719,58.7597326 23.7147672,59.4772272 27.2946429,59.4710226 C34.3912859,59.4782277 41.1986272,56.6589041 46.2120536,51.6361607 C48.6696429,49.1785714 50.5982143,46.3191964 51.9441964,43.1316964 C53.3423219,39.8361245 54.0598164,36.2919293 54.0536118,32.7120536 L54.0536118,30.9709821 C54.046875,30.6763393 53.8058036,30.4352679 53.5111607,30.4352679 L53.5111607,30.4352679 Z M59.3973214,26.71875 L59.2232143,24.8303571 C58.6540179,18.6696429 55.921875,12.8571429 51.515625,8.47098214 C47.1134656,4.07252527 41.3125092,1.35088421 35.1160714,0.776785714 L33.2209821,0.602678571 C32.90625,0.575892857 32.6383929,0.816964286 32.6383929,1.13169643 L32.6383929,26.8258929 C32.6383929,27.1205357 32.8794643,27.3616071 33.1741071,27.3616071 L58.8616071,27.2946429 C59.1763393,27.2879464 59.4241071,27.0267857 59.3973214,26.71875 Z" id="Icon-Shape"></path>
                    </g>
                </g>
            </g>
        </g>
    </g>
</svg>