<?xml version="1.0" encoding="UTF-8"?>
<svg width="60px" height="57px" viewBox="0 0 60 57" version="1.1" xmlns="http://www.w3.org/2000/svg" xmlns:xlink="http://www.w3.org/1999/xlink">
    <!-- Generator: Sketch 61.2 (89653) - https://sketch.com -->
    <title>mdi-account-edit copy</title>
    <desc>Created with Sketch.</desc>
    <g id="Test-2" stroke="none" stroke-width="1" fill="none" fill-rule="evenodd">
        <g id="Choosed-Landing-Page-Copy" transform="translate(-617.000000, -1597.000000)" fill="#FAC500" fill-rule="nonzero">
            <g id="Skills-card" transform="translate(133.000000, 1465.000000)">
                <g id="psychology" transform="translate(444.000000, 100.000000)">
                    <g id="mdi-account-edit-copy" transform="translate(40.000000, 32.000000)">
                        <path d="M59,31.1666667 L55.6666667,34.5 L48.8333333,27.6666667 L52.1666667,24.3333333 C52.8795464,23.6345714 54.0204536,23.6345714 54.7333333,24.3333333 L59,28.6 C59.7,29.3 59.7,30.4666667 59,31.1666667 M26.6666667,49.8 L46.8666667,29.6 L53.7,36.4333333 L33.5333333,56.6666667 L26.6666667,56.6666667 L26.6666667,49.8 M26.6666667,33.3333333 C11.9333333,33.3333333 0,39.3 0,46.6666667 L0,53.3333333 L20,53.3333333 L20,47.0333333 L33.3333333,33.7 C31.1333333,33.4333333 28.9,33.3333333 26.6666667,33.3333333 M26.6666667,0 C19.30287,0 13.3333333,5.96953667 13.3333333,13.3333333 C13.3333333,20.69713 19.30287,26.6666667 26.6666667,26.6666667 C34.0304633,26.6666667 40,20.69713 40,13.3333333 C40,5.96953667 34.0304633,0 26.6666667,0 Z" id="Icon-Shape"></path>
                    </g>
                </g>
            </g>
        </g>
    </g>
</svg>