<?xml version="1.0" encoding="UTF-8"?>
<svg width="60px" height="60px" viewBox="0 0 60 60" version="1.1" xmlns="http://www.w3.org/2000/svg" xmlns:xlink="http://www.w3.org/1999/xlink">
    <!-- Generator: Sketch 61.2 (89653) - https://sketch.com -->
    <title>bx-bxs-shapes</title>
    <desc>Created with Sketch.</desc>
    <g id="Test-2" stroke="none" stroke-width="1" fill="none" fill-rule="evenodd">
        <g id="Choosed-Landing-Page-Copy" transform="translate(-894.000000, -1596.000000)" fill="#4263FF" fill-rule="nonzero">
            <g id="Skills-card" transform="translate(133.000000, 1465.000000)">
                <g id="ui-design" transform="translate(730.000000, 100.000000)">
                    <g id="bx-bxs-shapes" transform="translate(31.000000, 31.000000)">
                        <path d="M47.1963793,2.16689655 C46.1558621,0.337931034 43.1486207,0.340862069 42.1081034,2.16689655 L30.3868966,22.6841379 C29.8687877,23.5911653 29.8725524,24.7053845 30.3967789,25.60889 C30.9210053,26.5123954 31.8864603,27.0686287 32.9310345,27.0689655 L56.3793103,27.0689655 C57.423127,27.0668357 58.3872125,26.5102879 58.9110598,25.6074359 C59.4349071,24.7045838 59.4396246,23.5913974 58.9234483,22.6841379 L47.1963793,2.16689655 L47.1963793,2.16689655 Z M3.62068966,59.3103448 L24.137931,59.3103448 C25.7566967,59.3103448 27.0689655,57.998076 27.0689655,56.3793103 L27.0689655,35.862069 C27.0689655,34.2433033 25.7566967,32.9310345 24.137931,32.9310345 L3.62068966,32.9310345 C2.00192401,32.9310345 0.689655172,34.2433033 0.689655172,35.862069 L0.689655172,56.3793103 C0.689655172,57.998076 2.00192401,59.3103448 3.62068966,59.3103448 Z M46.1206897,32.9310345 C38.8487931,32.9310345 32.9310345,38.8487931 32.9310345,46.1206897 C32.9310345,53.3925862 38.8487931,59.3103448 46.1206897,59.3103448 C53.3925862,59.3103448 59.3103448,53.3925862 59.3103448,46.1206897 C59.3103448,38.8487931 53.3925862,32.9310345 46.1206897,32.9310345 Z" id="Icon-Shape"></path>
                    </g>
                </g>
            </g>
        </g>
    </g>
</svg>