<?xml version="1.0" encoding="UTF-8"?>
<svg width="40px" height="40px" viewBox="0 0 40 40" version="1.1" xmlns="http://www.w3.org/2000/svg" xmlns:xlink="http://www.w3.org/1999/xlink">
    <!-- Generator: Sketch 61.2 (89653) - https://sketch.com -->
    <title>003-maze</title>
    <desc>Created with Sketch.</desc>
    <defs>
        <polygon id="path-1" points="0.00479218362 0.00319478908 39.6153846 0.00319478908 39.6153846 39.6153846 0.00479218362 39.6153846"></polygon>
    </defs>
    <g id="Test-2" stroke="none" stroke-width="1" fill="none" fill-rule="evenodd">
        <g id="Case-Study---Persona" transform="translate(-860.000000, -596.000000)">
            <g id="summary" transform="translate(128.000000, 566.000000)">
                <g id="Group-3-Copy-2" transform="translate(694.000000, 0.000000)">
                    <g id="003-maze" transform="translate(38.000000, 30.000000)">
                        <polyline id="Fill-1" fill="#DBF0FF" points="33.8647643 15.3349876 33.8647643 2.55583127 31.9478908 5.11166253 30.0310174 2.55583127 30.0310174 19.1687345 34.5037221 19.1687345 34.5037221 23.6414392 20.4466501 23.6414392 20.4466501 34.5037221 14.6960298 34.5037221 14.6960298 19.1687345 12.7791563 17.251861 10.8622829 19.1687345 10.8622829 38.337469 24.280397 38.337469 24.280397 27.4751861 38.337469 27.4751861 38.337469 15.3349876 33.8647643 15.3349876"></polyline>
                        <path d="M12.7791563,8.30645161 C15.2493672,8.30645161 17.251861,10.3089454 17.251861,12.7791563 C17.251861,15.2493672 15.2493672,17.251861 12.7791563,17.251861 C10.3089454,17.251861 8.30645161,15.2493672 8.30645161,12.7791563 C8.30645161,10.3089454 10.3089454,8.30645161 12.7791563,8.30645161" id="Fill-2" fill="#DBF0FF"></path>
                        <g id="Group-6">
                            <mask id="mask-2" fill="white">
                                <use xlink:href="#path-1"></use>
                            </mask>
                            <g id="Clip-4"></g>
                            <path d="M14.057072,12.7791563 C14.057072,13.4839268 13.4839268,14.057072 12.7791563,14.057072 C12.0743859,14.057072 11.5012407,13.4839268 11.5012407,12.7791563 C11.5012407,12.0743859 12.0743859,11.5012407 12.7791563,11.5012407 C13.4839268,11.5012407 14.057072,12.0743859 14.057072,12.7791563 Z M10.2233251,12.7791563 C10.2233251,14.1886973 11.3696154,15.3349876 12.7791563,15.3349876 C14.1886973,15.3349876 15.3349876,14.1886973 15.3349876,12.7791563 C15.3349876,11.3696154 14.1886973,10.2233251 12.7791563,10.2233251 C11.3696154,10.2233251 10.2233251,11.3696154 10.2233251,12.7791563 L10.2233251,12.7791563 Z" id="Fill-3" fill="#62748E" mask="url(#mask-2)"></path>
                            <path d="M33.8647643,9.58436725 L33.8647643,10.8622829 L38.337469,10.8622829 L38.337469,34.5037221 L34.5037221,34.5037221 L34.5037221,35.7816377 L38.337469,35.7816377 L38.337469,38.337469 L25.5583127,38.337469 L25.5583127,28.7531017 L30.0310174,28.7531017 L30.0310174,35.7816377 L31.308933,35.7816377 L31.308933,31.308933 L34.5037221,31.308933 L34.5037221,30.0310174 L31.308933,30.0310174 L31.308933,27.4751861 L24.280397,27.4751861 L24.280397,38.337469 L10.8622829,38.337469 L10.8622829,22.3635236 L9.58436725,22.3635236 L9.58436725,23.8184305 C4.72764888,22.4120844 1.27791563,17.8959305 1.27791563,12.7791563 C1.27791563,6.4375 6.4375,1.27791563 12.7791563,1.27791563 C19.1208127,1.27791563 24.280397,6.4375 24.280397,12.7791563 C24.280397,17.8959305 20.8306638,22.4120844 15.9739454,23.8184305 L15.9739454,22.3635236 L14.6960298,22.3635236 L14.6960298,34.5037221 L20.4466501,34.5037221 L20.4466501,28.1141439 L19.1687345,28.1141439 L19.1687345,33.2258065 L15.9739454,33.2258065 L15.9739454,25.1378784 C17.2352481,24.8120099 18.4205149,24.3091501 19.4926861,23.6414392 L34.5037221,23.6414392 L34.5037221,22.3635236 L30.0310174,22.3635236 L30.0310174,13.4181141 L28.7531017,13.4181141 L28.7531017,22.3635236 L21.2070099,22.3635236 C22.9411414,20.8313027 24.2407816,18.8396712 24.9506638,16.6129032 L27.4751861,16.6129032 L27.4751861,15.3349876 L25.2861166,15.3349876 C25.4579963,14.5043424 25.5583127,13.6513337 25.5583127,12.7791563 C25.5583127,12.1261414 25.4937779,11.4891005 25.3985732,10.8622829 L30.0310174,10.8622829 L30.0310174,9.58436725 L25.1378784,9.58436725 C23.7136414,4.08166253 18.7208251,0 12.7791563,0 C5.73272953,0 0,5.73272953 0,12.7791563 C0,18.5879218 4.00307072,23.6957506 9.58436725,25.1378784 L9.58436725,39.6153846 L39.6153846,39.6153846 L39.6153846,9.58436725 L33.8647643,9.58436725" id="Fill-5" fill="#62748E" mask="url(#mask-2)"></path>
                        </g>
                        <polygon id="Fill-7" fill="#62748E" points="27.6291749 4.88866625 31.308933 9.18182382 31.308933 17.8908189 35.7816377 17.8908189 35.7816377 24.9193548 21.7245658 24.9193548 21.7245658 35.7816377 13.4181141 35.7816377 13.4181141 18.3400062 16.1279342 21.5009305 17.0978722 20.6702854 12.7791563 15.6308251 8.46044045 20.6702854 9.43037841 21.5009305 12.1401985 18.3400062 12.1401985 37.0595533 23.0024814 37.0595533 23.0024814 26.1972705 37.0595533 26.1972705 37.0595533 16.6129032 32.5868486 16.6129032 32.5868486 9.18182382 36.2666067 4.88866625 35.2966687 4.05674318 32.5868486 7.21830645 32.5868486 5.34807692 36.2666067 1.05491935 35.2966687 0.222996278 31.9478908 4.12958437 28.5991129 0.222996278 27.6291749 1.05491935 31.308933 5.34807692 31.308933 7.21830645 28.5991129 4.05674318"></polygon>
                        <path d="M16.2633933,18.130428 L16.9624132,19.2006824 C19.1438151,17.7764454 20.4466501,15.3758809 20.4466501,12.7791563 C20.4466501,8.55117246 17.0071402,5.11166253 12.7791563,5.11166253 C8.55117246,5.11166253 5.11166253,8.55117246 5.11166253,12.7791563 C5.11166253,15.3758809 6.41449752,17.7764454 8.5958995,19.2006824 L9.29491935,18.130428 C7.47516749,16.9432444 6.38957816,14.9426675 6.38957816,12.7791563 C6.38957816,9.25594293 9.25594293,6.38957816 12.7791563,6.38957816 C16.3023697,6.38957816 19.1687345,9.25594293 19.1687345,12.7791563 C19.1687345,14.9426675 18.0831452,16.9432444 16.2633933,18.130428" id="Fill-8" fill="#62748E"></path>
                    </g>
                </g>
            </g>
        </g>
    </g>
</svg>